<svg width="32" height="32" viewBox="0 0 32 32" fill="none" xmlns="http://www.w3.org/2000/svg">
<path d="M16 32C24.8366 32 32 24.8366 32 16C32 7.16344 24.8366 0 16 0C7.16344 0 0 7.16344 0 16C0 24.8366 7.16344 32 16 32Z" fill="black"/>
<path d="M9.22316 19.4485C9.34287 19.333 9.50747 19.2656 9.68204 19.2656H25.5135C25.8028 19.2656 25.9474 19.6025 25.7429 19.7998L22.6156 22.8171C22.4958 22.9326 22.3312 23 22.1567 23H6.32522C6.03592 23 5.89127 22.6631 6.09577 22.4658L9.22316 19.4485Z" fill="url(#paint0_linear_455_761)"/>
<path d="M9.22316 8.18287C9.34786 8.06737 9.51246 8 9.68204 8H25.5135C25.8028 8 25.9474 8.33686 25.7429 8.53417L22.6156 11.5515C22.4958 11.667 22.3312 11.7344 22.1567 11.7344H6.32522C6.03592 11.7344 5.89127 11.3975 6.09577 11.2002L9.22316 8.18287Z" fill="url(#paint1_linear_455_761)"/>
<path d="M22.6156 13.7795C22.4958 13.6641 22.3312 13.5967 22.1567 13.5967H6.32522C6.03592 13.5967 5.89127 13.9335 6.09577 14.1308L9.22316 17.1482C9.34287 17.2637 9.50747 17.331 9.68204 17.331H25.5135C25.8028 17.331 25.9474 16.9942 25.7429 16.7969L22.6156 13.7795Z" fill="url(#paint2_linear_455_761)"/>
<defs>
<linearGradient id="paint0_linear_455_761" x1="24.0011" y1="6.19752" x2="13.6488" y2="26.7497" gradientUnits="userSpaceOnUse">
<stop stop-color="#00FFA3"/>
<stop offset="1" stop-color="#DC1FFF"/>
</linearGradient>
<linearGradient id="paint1_linear_455_761" x1="19.2103" y1="3.78434" x2="8.85797" y2="24.3365" gradientUnits="userSpaceOnUse">
<stop stop-color="#00FFA3"/>
<stop offset="1" stop-color="#DC1FFF"/>
</linearGradient>
<linearGradient id="paint2_linear_455_761" x1="21.5905" y1="4.98321" x2="11.2381" y2="25.5354" gradientUnits="userSpaceOnUse">
<stop stop-color="#00FFA3"/>
<stop offset="1" stop-color="#DC1FFF"/>
</linearGradient>
</defs>
</svg>
