<svg width="30" height="30" viewBox="0 0 30 30" fill="none" xmlns="http://www.w3.org/2000/svg">
<path d="M15 30C23.2843 30 30 23.2843 30 15C30 6.71573 23.2843 0 15 0C6.71573 0 0 6.71573 0 15C0 23.2843 6.71573 30 15 30Z" fill="#0B0E11"/>
<path d="M10.7922 13.2712L14.9999 9.06359L19.2098 13.2734L21.6581 10.825L14.9999 4.16675L8.34382 10.8228L10.7922 13.2712ZM6.61494 12.5515L9.06329 14.9999L6.61482 17.4483L4.1665 15L6.61494 12.5515ZM10.7922 16.7289L14.9999 20.9364L19.2097 16.7268L21.6594 19.1739L21.6581 19.1752L14.9999 25.8334L8.34372 19.1773L8.34032 19.174L10.7922 16.7289ZM25.8334 15.0003L23.3851 17.4486L20.9368 15.0003L23.3851 12.552L25.8334 15.0003Z" fill="#F0B90B"/>
<path d="M17.4832 14.9987H17.4843L14.9998 12.5142L12.5142 14.9998L12.5175 15.0033L14.9998 17.4856L17.4855 14.9998L17.4832 14.9987Z" fill="#F0B90B"/>
</svg>
